<svg width="150" height="42" viewBox="0 0 150 42" fill="none" xmlns="http://www.w3.org/2000/svg">
<g clip-path="url(#clip0_11_4848)">
<path d="M131.246 41.1308H91.7191C87.8906 41.1308 85.9143 38.0266 87.3112 34.1981L91.9675 21.4191C93.3644 17.5905 97.5965 14.4863 101.415 14.4863H140.942C144.77 14.4863 146.746 17.5905 145.35 21.4191L140.704 34.1981C139.307 38.0266 135.075 41.1308 131.246 41.1308Z" fill="url(#paint0_linear_11_4848)"/>
<path d="M91.8177 221.969L88.8631 237.986H272.387L275.341 221.969H91.8177ZM100.968 62.9219L98.0968 78.4882H299.743L302.615 62.9219H100.968ZM105.407 103.53L78.399 249.943H95.3749L122.383 103.53H105.407ZM157.58 140.302H245.442L241.988 159.027H154.126L157.58 140.302ZM151.879 171.209H239.741L236.287 189.934H148.425L151.879 171.209ZM163.198 109.846H251.06L247.689 128.12H159.828L163.198 109.846ZM149.053 96.9872L129.536 202.793H251.12L270.638 96.9872H149.053ZM199.937 41.2644C195.836 59.7635 187.902 86.6097 182.069 103.304L198.796 104.658C204.92 88.8657 213.21 63.8243 219.416 42.618L199.937 41.2644ZM237.641 316.908C209.448 322.999 159.94 327.737 119.878 329.767C120.86 333.151 121.655 338.791 121.677 342.401C162.344 340.822 212.498 336.31 244.987 329.316L237.641 316.908ZM109.157 374.21L106.535 388.423H243.948L246.57 374.21H109.157ZM176.729 329.993L158.169 430.61H173.998L192.558 329.993H176.729ZM156.401 441.438L144.083 508.216H158.994L171.312 441.438H156.401ZM131.231 347.815C134.509 356.162 137.934 367.442 139.397 374.436L154.577 369.247C153.302 362.479 149.335 351.65 146.016 343.529L131.231 347.815ZM221.363 339.242C214.923 350.522 203.627 366.991 195.519 377.369L207.345 381.655C215.558 371.954 226.334 357.065 235.671 343.754L221.363 339.242ZM157.982 381.88C141.473 401.733 113.16 420.909 88.3257 429.933C91.2257 432.866 95.1907 438.731 96.8189 442.341C122.674 431.512 152.55 410.08 170.559 387.069L157.982 381.88ZM192.851 381.88L178.547 387.295C188.483 408.05 209.805 429.256 230.102 439.859C233.374 435.798 239.461 430.159 243.444 427.226C223.502 418.427 202.327 400.154 192.851 381.88ZM110.685 435.573L94.6214 522.654H110.221L123.87 448.658H204.621L191.179 521.526H207.238L223.093 435.573H110.685ZM114.827 467.833L112.539 480.241H203.612L205.901 467.833H114.827ZM108.918 499.868L106.546 512.727H197.161L199.533 499.868H108.918ZM24.4488 434.219L25.123 450.462C46.1418 443.469 73.0825 434.219 98.4173 424.97L98.4943 409.629C71.3242 418.879 42.9655 428.354 24.4488 434.219ZM41.1851 360.9L38.2721 376.692H108.011L110.924 360.9H41.1851ZM78.4545 315.555L43.8314 503.252C43.2072 506.636 41.7059 507.313 38.9531 507.313C36.1586 507.539 27.4412 507.539 17.3891 507.313C18.8092 512.051 19.5838 519.044 19.523 523.105C33.9754 523.105 43.0054 522.654 48.7811 519.947C55.0156 517.239 58.1419 512.727 59.8897 503.252L94.5128 315.555H78.4545Z" fill="white"/>
<path d="M46.4701 3.80783C46.1803 3.51811 46.0044 3.12491 46.0044 2.69032C45.9941 1.80044 46.7081 1.07613 47.5979 1.06578C52.2646 1.01404 56.6726 2.79379 60.0148 6.06356C63.357 9.33333 65.2298 13.7103 65.2816 18.3769C65.2919 19.2668 64.5779 19.9911 63.6881 20.0015C62.7982 20.0118 62.0739 19.2979 62.0635 18.408C62.0221 14.6001 60.4907 11.02 57.7694 8.35033C55.0377 5.68071 51.4368 4.22173 47.629 4.26312C47.1737 4.28381 46.7701 4.09756 46.4701 3.80783Z" fill="url(#paint1_linear_11_4848)"/>
<path d="M46.5321 9.71619C46.2424 9.42646 46.0665 9.03326 46.0665 8.59867C46.0561 7.70879 46.7701 6.98448 47.66 6.97413C50.7538 6.94309 53.6718 8.12269 55.8861 10.2853C58.1005 12.4582 59.3421 15.3555 59.3732 18.439C59.3835 19.3289 58.6696 20.0532 57.7797 20.0636C56.8898 20.0739 56.1655 19.3599 56.1552 18.4701C56.1345 16.235 55.2343 14.1449 53.6408 12.5721C52.0369 11.0096 49.9261 10.1508 47.691 10.1818C47.2357 10.1922 46.8322 10.0163 46.5321 9.71619Z" fill="url(#paint2_linear_11_4848)"/>
<path d="M90.9017 14.5174C89.6807 17.8699 85.9763 20.5809 82.6238 20.5809H74.8529L73.3318 24.7509H85.8832C84.6622 28.1035 80.9579 30.8145 77.6053 30.8145H71.1175L69.5861 35.0259H83.8137C82.5927 38.3784 78.8884 41.0895 75.5358 41.0895H59.4974L69.1722 14.507H90.9017V14.5174Z" fill="url(#paint3_linear_11_4848)"/>
<path d="M69.1722 14.5174H90.9017C89.6807 17.8699 85.9763 20.5809 82.6238 20.5809H66.9579L69.1722 14.5174Z" fill="url(#paint4_linear_11_4848)"/>
<path d="M69.1722 14.5174H71.3244C74.4907 14.5174 76.1256 17.0835 74.9667 20.2498L67.3821 41.0998H59.4974L69.1722 14.5174Z" fill="url(#paint5_linear_11_4848)"/>
<path d="M52.6992 22.4021L48.2912 34.4982H52.8441C56.4863 34.4982 58.3696 37.4472 57.0451 41.0998H38.0059L47.6807 14.5174C52.0473 14.5174 54.2927 18.0458 52.6992 22.4021Z" fill="url(#paint6_linear_11_4848)"/>
<path d="M39.3511 41.0998H38.0163L47.6911 14.5174C52.0473 14.5174 54.2927 18.0458 52.7096 22.4021L48.2912 34.5499C46.9668 38.1611 42.9623 41.0998 39.3511 41.0998Z" fill="url(#paint7_linear_11_4848)"/>
<path d="M23.1367 22.5573L16.8662 25.9926C17.0214 28.3829 17.5491 30.2247 18.439 31.2594C18.5528 31.3939 18.7081 31.5491 18.8943 31.694C18.9253 31.7147 18.946 31.7251 18.9564 31.7354C18.9667 31.7458 18.9667 31.7457 18.9771 31.7457C18.9874 31.7561 18.9874 31.7561 18.9874 31.7561C19.0392 31.7975 19.0909 31.8285 19.1426 31.8596C19.1633 31.8699 19.184 31.8906 19.2047 31.901C19.2358 31.9217 19.2668 31.9423 19.3082 31.9527C19.5255 32.0665 19.7842 32.17 20.0946 32.2528C20.136 32.2631 20.1774 32.2735 20.2188 32.2838C20.4257 32.3356 20.6534 32.3769 20.9017 32.3976C20.9638 32.408 21.0259 32.408 21.0879 32.4183H21.1086C21.1707 32.4287 21.2328 32.4287 21.3052 32.4287C21.3466 32.4287 21.388 32.4287 21.4294 32.439C21.4708 32.439 21.5122 32.439 21.5536 32.439C21.6157 32.439 21.6777 32.439 21.7398 32.439H21.7709C21.8743 32.439 21.9778 32.439 22.0813 32.4287C22.0916 32.4287 22.1123 32.4287 22.1227 32.4287C24.4095 32.3356 26.2306 31.3629 27.7517 29.4279C28.0103 29.1072 28.2587 28.7554 28.4967 28.3725C29.0658 27.4619 29.5935 26.4065 30.0591 25.2062C30.473 24.1404 30.8455 22.9712 31.1559 21.7088C31.1559 21.6984 31.1559 21.6984 31.1559 21.6984L40.779 20.643L38.9682 25.8684C34.9845 38.9061 26.748 41.0687 21.7709 41.0791H21.7295C21.0259 41.0791 20.3636 41.0377 19.7324 40.9549C16.8766 40.5928 14.7967 39.4959 13.3274 38.2853C13.048 38.0576 12.7997 37.83 12.5721 37.6024C12.51 37.5403 12.4479 37.4782 12.3858 37.4161C12.2616 37.2919 12.1478 37.1678 12.0443 37.054C11.9926 36.9919 11.9305 36.9298 11.8891 36.878C11.6615 36.609 11.4338 36.3296 11.2269 36.0399C10.8027 35.4605 10.4302 34.8293 10.099 34.1567C10.068 34.0946 10.037 34.0429 10.0163 33.9808C9.93348 33.8152 9.86105 33.6497 9.78861 33.4738C9.62306 33.0909 9.46784 32.6977 9.33333 32.2942C9.12638 31.7044 8.95048 31.0835 8.80561 30.442C8.37102 28.5898 8.16408 26.51 8.19512 24.2129L23.1367 22.5573Z" fill="url(#paint8_linear_11_4848)"/>
<path opacity="0.05" d="M23.1367 22.5573L16.8662 25.9926C17.0214 28.3829 17.5491 30.2247 18.439 31.2594C18.5528 31.3939 18.7081 31.5491 18.8943 31.694C18.9253 31.7147 18.946 31.7251 18.9564 31.7354C18.9667 31.7458 18.9667 31.7457 18.9771 31.7457C18.9874 31.7561 18.9874 31.7561 18.9874 31.7561C19.0392 31.7975 19.0909 31.8285 19.1426 31.8596C19.1633 31.8699 19.184 31.8906 19.2047 31.901C19.2358 31.9217 19.2668 31.9423 19.3082 31.9527C19.5255 32.0665 19.7842 32.17 20.0946 32.2528C20.136 32.2631 20.1774 32.2735 20.2188 32.2838C20.4257 32.3356 20.6534 32.3769 20.9017 32.3976C20.9638 32.408 21.0259 32.408 21.0879 32.4183H21.1086C21.1707 32.4287 21.2328 32.4287 21.3052 32.4287C21.3466 32.4287 21.388 32.4287 21.4294 32.439C21.4708 32.439 21.5122 32.439 21.5536 32.439C21.6157 32.439 21.6777 32.439 21.7398 32.439H21.7709C21.8743 32.439 21.9778 32.439 22.0813 32.4287C22.0916 32.4287 22.1123 32.4287 22.1227 32.4287C24.4095 32.3356 26.2306 31.3629 27.7517 29.4279C28.0103 29.1072 28.2587 28.7554 28.4967 28.3725C29.0658 27.4619 29.5935 26.4065 30.0591 25.2062C30.473 24.1404 30.8455 22.9712 31.1559 21.7088C31.1559 21.6984 31.1559 21.6984 31.1559 21.6984L40.779 20.643L38.9682 25.8684C34.9845 38.9061 26.748 41.0687 21.7709 41.0791H21.7295C21.0259 41.0791 20.3636 41.0377 19.7324 40.9549C16.8766 40.5928 14.7967 39.4959 13.3274 38.2853C13.048 38.0576 12.7997 37.83 12.5721 37.6024C12.51 37.5403 12.4479 37.4782 12.3858 37.4161C12.2616 37.2919 12.1478 37.1678 12.0443 37.054C11.9926 36.9919 11.9305 36.9298 11.8891 36.878C11.6615 36.609 11.4338 36.3296 11.2269 36.0399C10.8027 35.4605 10.4302 34.8293 10.099 34.1567C10.068 34.0946 10.037 34.0429 10.0163 33.9808C9.93348 33.8152 9.86105 33.6497 9.78861 33.4738C9.62306 33.0909 9.46784 32.6977 9.33333 32.2942C9.12638 31.7044 8.95048 31.0835 8.80561 30.442C8.37102 28.5898 8.16408 26.51 8.19512 24.2129L23.1367 22.5573Z" fill="black"/>
<path d="M27.0687 18.5425L33.3392 15.0968C33.184 12.7066 32.6563 10.8648 31.7664 9.83001C31.6526 9.6955 31.4974 9.54029 31.3112 9.39542C31.2801 9.37473 31.2594 9.36438 31.2491 9.35403C31.2387 9.34369 31.2387 9.34369 31.2284 9.34369C31.218 9.33334 31.218 9.33334 31.218 9.33334C31.1663 9.29195 31.1146 9.26091 31.0628 9.22987C31.0421 9.21952 31.0214 9.19882 31.0007 9.18848C30.9697 9.16778 30.9386 9.14709 30.8973 9.13674C30.68 9.02292 30.4213 8.91944 30.1109 8.83667C30.0695 8.82632 30.0281 8.81597 29.9867 8.80562C29.7797 8.75389 29.5521 8.7125 29.3038 8.6918C29.2417 8.68145 29.1796 8.68146 29.1175 8.67111H29.0968C29.0347 8.66076 28.9726 8.66076 28.9002 8.66076C28.8588 8.66076 28.8174 8.66076 28.776 8.65041C28.7347 8.65041 28.6933 8.65041 28.6519 8.65041C28.5898 8.65041 28.5277 8.65041 28.4656 8.65041H28.4346C28.3311 8.65041 28.2276 8.65041 28.1242 8.66076C28.1138 8.66076 28.0931 8.66076 28.0828 8.66076C25.796 8.75389 23.9749 9.72654 22.4538 11.6615C22.1951 11.9823 21.9468 12.3341 21.7088 12.7169C21.1397 13.6275 20.612 14.6829 20.1463 15.8832C19.7324 16.949 19.3599 18.1183 19.0495 19.3806C19.0495 19.391 19.0495 19.391 19.0495 19.391L1.62454 21.3363L11.2269 15.2107C15.2106 2.17295 23.4471 0.0103474 28.4346 0H28.476C29.1796 0 29.8418 0.0413895 30.473 0.124169C33.3289 0.486327 35.4087 1.58315 36.878 2.79379C37.1574 3.02144 37.4058 3.24908 37.6334 3.47672C37.6955 3.5388 37.7576 3.60089 37.8197 3.66297C37.9438 3.78714 38.0576 3.91131 38.1611 4.02513C38.2129 4.08722 38.2749 4.1493 38.3163 4.20104C38.544 4.47007 38.7716 4.74945 38.9786 5.03918C39.4028 5.61863 39.7753 6.24982 40.1064 6.9224C40.1375 6.98448 40.1685 7.03622 40.1892 7.0983C40.272 7.26386 40.3444 7.42942 40.4168 7.60533C40.5824 7.98818 40.7376 8.38138 40.8721 8.78493C41.0791 9.37473 41.255 9.99557 41.3998 10.6371C41.8344 12.4893 42.0414 14.5691 42.0103 16.8662L27.0687 18.5425Z" fill="url(#paint9_linear_11_4848)"/>
<path opacity="0.05" d="M27.0687 18.5425L33.3392 15.0968C33.184 12.7066 32.6563 10.8648 31.7664 9.83001C31.6526 9.6955 31.4974 9.54029 31.3112 9.39542C31.2801 9.37473 31.2594 9.36438 31.2491 9.35403C31.2387 9.34369 31.2387 9.34369 31.2284 9.34369C31.218 9.33334 31.218 9.33334 31.218 9.33334C31.1663 9.29195 31.1146 9.26091 31.0628 9.22987C31.0421 9.21952 31.0214 9.19882 31.0007 9.18848C30.9697 9.16778 30.9386 9.14709 30.8973 9.13674C30.68 9.02292 30.4213 8.91944 30.1109 8.83667C30.0695 8.82632 30.0281 8.81597 29.9867 8.80562C29.7797 8.75389 29.5521 8.7125 29.3038 8.6918C29.2417 8.68145 29.1796 8.68146 29.1175 8.67111H29.0968C29.0347 8.66076 28.9726 8.66076 28.9002 8.66076C28.8588 8.66076 28.8174 8.66076 28.776 8.65041C28.7347 8.65041 28.6933 8.65041 28.6519 8.65041C28.5898 8.65041 28.5277 8.65041 28.4656 8.65041H28.4346C28.3311 8.65041 28.2276 8.65041 28.1242 8.66076C28.1138 8.66076 28.0931 8.66076 28.0828 8.66076C25.796 8.75389 23.9749 9.72654 22.4538 11.6615C22.1951 11.9823 21.9468 12.3341 21.7088 12.7169C21.1397 13.6275 20.612 14.6829 20.1463 15.8832C19.7324 16.949 19.3599 18.1183 19.0495 19.3806C19.0495 19.391 19.0495 19.391 19.0495 19.391L1.62454 21.3363L11.2269 15.2107C15.2106 2.17295 23.4471 0.0103474 28.4346 0H28.476C29.1796 0 29.8418 0.0413895 30.473 0.124169C33.3289 0.486327 35.4087 1.58315 36.878 2.79379C37.1574 3.02144 37.4058 3.24908 37.6334 3.47672C37.6955 3.5388 37.7576 3.60089 37.8197 3.66297C37.9438 3.78714 38.0576 3.91131 38.1611 4.02513C38.2129 4.08722 38.2749 4.1493 38.3163 4.20104C38.544 4.47007 38.7716 4.74945 38.9786 5.03918C39.4028 5.61863 39.7753 6.24982 40.1064 6.9224C40.1375 6.98448 40.1685 7.03622 40.1892 7.0983C40.272 7.26386 40.3444 7.42942 40.4168 7.60533C40.5824 7.98818 40.7376 8.38138 40.8721 8.78493C41.0791 9.37473 41.255 9.99557 41.3998 10.6371C41.8344 12.4893 42.0414 14.5691 42.0103 16.8662L27.0687 18.5425Z" fill="black"/>
<path d="M36.878 2.79379C29.4279 4.06652 25.02 7.95714 22.4538 11.6512C21.4087 13.1515 20.6637 14.6209 20.1463 15.8729C19.3289 17.8285 19.0702 19.2358 19.0495 19.3703C19.0495 19.3806 19.0495 19.3806 19.0495 19.3806L1.62454 21.3363L11.2269 15.2107C15.2106 2.17295 23.4471 0.0103474 28.4346 0H28.476C29.1796 0 29.8418 0.0413895 30.473 0.124169C33.3289 0.47598 35.3984 1.58315 36.878 2.79379C36.878 2.78345 36.878 2.78345 36.878 2.79379Z" fill="url(#paint10_linear_11_4848)"/>
<path d="M13.3274 38.306C20.7775 37.0333 25.1855 33.1426 27.7517 29.4486C28.7967 27.9483 29.5418 26.4789 30.0591 25.2269C30.8766 23.2713 31.1352 21.864 31.1559 21.7295C31.1559 21.7191 31.1559 21.7191 31.1559 21.7191L40.779 20.6637L38.9682 25.8891C34.9845 38.9268 26.748 41.0894 21.7709 41.0998H21.7295C21.0259 41.0998 20.3636 41.0584 19.7324 40.9756C16.8869 40.6238 14.8071 39.5166 13.3274 38.306C13.3274 38.3163 13.3274 38.3163 13.3274 38.306Z" fill="url(#paint11_linear_11_4848)"/>
<path d="M99.9169 22.576H101.645V32.512H107.933V34H99.9169V22.576ZM109.402 22.576H111.13V34H109.402V22.576ZM112.361 22.576H114.249L117.497 32.048H117.545L120.777 22.576H122.665L118.569 34H116.457L112.361 22.576ZM123.87 22.576H132.078V24.064H125.614V27.392H131.694V28.88H125.614V32.512H132.35V34H123.87V22.576Z" fill="white"/>
</g>
<defs>
<linearGradient id="paint0_linear_11_4848" x1="89.6409" y1="27.8071" x2="136.78" y2="44.9657" gradientUnits="userSpaceOnUse">
<stop stop-color="#000333"/>
<stop offset="1" stop-color="#666666"/>
</linearGradient>
<linearGradient id="paint1_linear_11_4848" x1="41.7985" y1="-11.2631" x2="73.7491" y2="33.3667" gradientUnits="userSpaceOnUse">
<stop stop-color="#FF721A"/>
<stop offset="1" stop-color="#F6A62C"/>
</linearGradient>
<linearGradient id="paint2_linear_11_4848" x1="38.0167" y1="-8.55568" x2="69.9672" y2="36.074" gradientUnits="userSpaceOnUse">
<stop stop-color="#FF721A"/>
<stop offset="1" stop-color="#F6A62C"/>
</linearGradient>
<linearGradient id="paint3_linear_11_4848" x1="87.0281" y1="27.8071" x2="73.4341" y2="22.8589" gradientUnits="userSpaceOnUse">
<stop stop-color="#FF721A"/>
<stop offset="1" stop-color="#F6A62C"/>
</linearGradient>
<linearGradient id="paint4_linear_11_4848" x1="88.8468" y1="17.549" x2="68.0916" y2="9.99413" gradientUnits="userSpaceOnUse">
<stop stop-color="#FF721A"/>
<stop offset="1" stop-color="#F6A62C"/>
</linearGradient>
<linearGradient id="paint5_linear_11_4848" x1="75.6794" y1="18.0777" x2="63.2637" y2="44.838" gradientUnits="userSpaceOnUse">
<stop stop-color="#FF2E1A"/>
<stop offset="1" stop-color="#F6A62C"/>
</linearGradient>
<linearGradient id="paint6_linear_11_4848" x1="63.703" y1="27.8071" x2="44.2532" y2="20.7274" gradientUnits="userSpaceOnUse">
<stop stop-color="#FF721A"/>
<stop offset="1" stop-color="#F6A62C"/>
</linearGradient>
<linearGradient id="paint7_linear_11_4848" x1="41.7341" y1="41.7032" x2="41.7341" y2="13.7593" gradientUnits="userSpaceOnUse">
<stop stop-color="#FF2E1A"/>
<stop offset="1" stop-color="#F6A62C"/>
</linearGradient>
<linearGradient id="paint8_linear_11_4848" x1="8.16312" y1="30.8804" x2="40.7871" y2="30.8804" gradientUnits="userSpaceOnUse">
<stop stop-color="#FF721A"/>
<stop offset="1" stop-color="#F6A62C"/>
</linearGradient>
<linearGradient id="paint9_linear_11_4848" x1="42.0445" y1="10.6666" x2="1.62032" y2="10.6666" gradientUnits="userSpaceOnUse">
<stop stop-color="#FF721A"/>
<stop offset="1" stop-color="#F6A62C"/>
</linearGradient>
<linearGradient id="paint10_linear_11_4848" x1="1.62032" y1="10.6666" x2="36.8787" y2="10.6666" gradientUnits="userSpaceOnUse">
<stop stop-color="#FF2E1A"/>
<stop offset="1" stop-color="#F6A62C"/>
</linearGradient>
<linearGradient id="paint11_linear_11_4848" x1="40.7871" y1="30.8804" x2="13.329" y2="30.8804" gradientUnits="userSpaceOnUse">
<stop stop-color="#FF721A"/>
<stop offset="1" stop-color="#F6A62C"/>
</linearGradient>
<clipPath id="clip0_11_4848">
<rect width="147.419" height="42" fill="white"/>
</clipPath>
</defs>
</svg>
